<svg id="Capa_1" enable-background="new 0 0 510 510" height="512" viewBox="0 0 510 510" width="512" xmlns="http://www.w3.org/2000/svg"><g><g fill="#2ade7a"><path id="XMLID_548_" d="m117.622 371.165-32.328 32.327-21.213-21.213-21.213 21.213 63.64 63.64 21.213-21.213-21.214-21.214 32.328-32.327-1.585-17.628z"/><path id="XMLID_488_" d="m75.63 270h-45.63v30h-30v-90h30v30h45.63l11.245 15z"/><path id="XMLID_517_" d="m117.622 138.835-32.328-32.327-21.213 21.213-21.213-21.213 63.64-63.64 21.213 21.213-21.214 21.214 32.328 32.327-.171 19.548z"/><path id="XMLID_407_" d="m246.565 81.92 8.435-6.92 10-45-10-30h-45v30h30v45.63z"/></g><path id="XMLID_516_" d="m262.539 85.161 7.461-9.531v-45.63h30v-30h-45v75z" fill="#20b48d"/><path id="XMLID_393_" d="m371.458 372.958-.293 19.42 32.328 32.327-21.214 21.214 21.213 21.213 63.64-63.64-21.213-21.213-21.214 21.213-32.327-32.327z" fill="#20b48d"/><path id="XMLID_392_" d="m425 255 9.37 15h45.63v30h30v-90h-30v30h-45.63z" fill="#20b48d"/><path id="XMLID_388_" d="m373.001 138.585 19.377.25 32.328-32.327 21.213 21.213 21.213-21.213-63.64-63.64-21.213 21.213 21.214 21.214-32.328 32.327z" fill="#20b48d"/><path id="XMLID_541_" d="m248.082 427.666 6.918 7.334 10 47.334-10 27.666h-45v-30h30v-45.631z" fill="#2ade7a"/><path id="XMLID_559_" d="m262.065 427.938-7.065 7.062v75h45v-30h-30v-45.631z" fill="#20b48d"/><path id="XMLID_884_" d="m255 75 10 180-10 180c-99.252 0-180-80.748-180-180s80.748-180 180-180z" fill="#a1f33f"/><path id="XMLID_1279_" d="m255 75v360c99.252 0 180-80.748 180-180s-80.748-180-180-180z" fill="#2ade7a"/><circle id="XMLID_1138_" cx="202.5" cy="315" fill="#2ade7a" r="37.5"/><circle id="XMLID_1135_" cx="307.5" cy="195" fill="#20b48d" r="37.5"/><g id="XMLID_518_"><g><path id="XMLID_73_" d="m135 210h30v30h-30z" fill="#2ade7a"/></g></g><g id="XMLID_514_"><path id="XMLID_1108_" d="m345 255h30v30h-30z" fill="#20b48d"/></g><g id="XMLID_512_"><path id="XMLID_1107_" d="m285 270h30v30h-30z" fill="#20b48d"/></g><g id="XMLID_485_"><g><path id="XMLID_74_" d="m180 150h30v30h-30z" fill="#2ade7a"/></g></g><g id="XMLID_406_"><path id="XMLID_1104_" d="m285 330h30v30h-30z" fill="#20b48d"/></g><g id="XMLID_405_"><g><path id="XMLID_75_" d="m195 210h30v30h-30z" fill="#2ade7a"/></g></g></g></svg>