<svg id="Capa_1" enable-background="new 0 0 512 512" height="512" viewBox="0 0 512 512" width="512" xmlns="http://www.w3.org/2000/svg"><g><g><path d="m107.415 472.25c-59.324 0-107.415-48.091-107.415-107.415v-217.649c0-59.323 48.091-107.415 107.415-107.415 59.324 0 107.415 48.091 107.415 107.415v217.649c0 59.324-48.091 107.415-107.415 107.415z" fill="#dfdfef"/><path d="m214.829 147.191v217.64c0 59.323-48.095 107.418-107.418 107.418-5.712 0-11.331-.443-16.805-1.309 51.333-8.073 90.593-52.508 90.593-106.109v-217.64c0-29.672-12.021-56.519-31.455-75.963-15.692-15.681-36.208-26.548-59.137-30.146 5.475-.866 11.093-1.309 16.805-1.309 29.661 0 56.519 12.021 75.953 31.455 19.443 19.445 31.464 46.291 31.464 75.963z" fill="#cdd3e8"/><path d="m214.83 256.011h-214.83v-108.825c0-59.323 48.091-107.415 107.415-107.415 59.324 0 107.415 48.091 107.415 107.415z" fill="#ff4343"/><path d="m214.829 147.191v108.82h-33.631v-108.82c0-29.672-12.021-56.518-31.455-75.963-16.111-16.12-36.631-26.134-58.954-30.141 15.791-2.689 33.459-1.243 48.83 3.615 10.168 3.214 19.886 7.917 28.685 13.944 5.409 3.705 10.425 7.946 15.06 12.581 9.656 9.656 17.737 21.656 23.022 34.146 3.032 7.166 5.418 15.125 6.763 22.795 1.103 6.177 1.68 12.528 1.68 19.023z" fill="#d31e4e"/></g><g><path d="m204.311 463.998c-51.807-21.528-76.352-80.978-54.824-132.785l78.984-190.07c21.528-51.807 80.978-76.352 132.785-54.824 51.807 21.528 76.352 80.978 54.824 132.785l-78.984 190.07c-21.529 51.807-80.979 76.353-132.785 54.824z" fill="#ffcc5a"/><path d="m416.076 219.109-78.981 190.063c-21.528 51.806-80.983 76.353-132.788 54.825-4.988-2.073-9.734-4.499-14.201-7.242 47.758 11.579 98.168-12.979 117.62-59.788l78.981-190.063c10.768-25.912 10.012-53.719.097-77.753-8.013-19.389-21.986-36.324-40.704-47.787 5.095 1.23 10.163 2.882 15.151 4.955 25.903 10.764 44.995 31.008 54.913 55.032 9.925 24.038 10.68 51.846-.088 77.758z" fill="#ffb509"/><path d="m376.587 314.14-187.609-77.961 39.492-95.035c21.528-51.807 80.978-76.352 132.785-54.824 51.807 21.528 76.352 80.978 54.824 132.785z" fill="#dfdfef"/><path d="m416.076 219.109-39.49 95.031-29.369-12.204 39.49-95.031c10.768-25.912 10.012-53.719.097-77.752-8.22-19.924-22.506-36.116-40.546-47.716 14.766 3.382 29.671 11.057 41.331 20.877 7.713 6.496 14.493 14.13 19.99 22.587 3.379 5.199 6.221 10.723 8.586 16.452 4.928 11.937 7.631 25.349 7.713 38.174.047 7.358-.758 15.174-2.366 22.361-1.278 5.793-3.078 11.548-5.436 17.221z" fill="#cdd3e8"/></g><circle cx="388.874" cy="349.033" fill="#bcf7e7" r="123.121"/><path d="m512 349.037c0 67.993-55.127 123.12-123.13 123.12-19.63 0-38.188-4.598-54.652-12.774 9.155 2.175 18.723 3.33 28.548 3.33 67.993 0 123.12-55.126 123.12-123.12 0-48.363-27.888-90.221-68.468-110.346 54.24 12.867 94.582 61.612 94.582 119.79z" fill="#abefd9"/><path d="m505.948 310.86-211.475 117.212c-9.99-11.908-17.764-25.744-22.671-40.858l211.465-117.223c10 11.908 17.774 25.744 22.681 40.869z" fill="#5ee2c5"/><path d="m505.948 310.86-21.228 11.763c-2.227-16.166-7.588-31.331-15.465-44.868l14.011-7.763c.031.031.062.072.093.113.258.309.516.619.773.938.062.072.113.144.175.216 6.573 7.667 11.966 16.675 16.218 25.816.412.897.815 1.794 1.216 2.691 1.568 3.619 2.98 7.31 4.207 11.094z" fill="#00d3b4"/></g></svg>